<svg id="Layer_1" enable-background="new 0 0 504.856 504.856" height="512" viewBox="0 0 504.856 504.856" width="512" xmlns="http://www.w3.org/2000/svg"><path d="m443.386 419.017c-.098-11.091-4.279-21.637-12.234-31.297l-163.592-377.802c-5.726-13.224-24.539-13.225-30.266 0l-163.593 377.802c-7.596 9.226-12.244 19.887-12.244 31.695 0 25.65 21.853 48.412 61.533 64.093 114.8 45.369 322.326 15.904 320.396-64.491zm-190.959-361.046 128.62 297.034c-71.835-28.052-185.355-28.071-257.24 0zm117.315 394.864c-64.211 25.376-170.226 25.452-234.631 0-24.708-9.765-40.674-22.883-40.674-33.421s15.965-23.656 40.674-33.421c64.211-25.376 170.226-25.452 234.631 0 24.708 9.765 40.674 22.883 40.674 33.421s-15.965 23.657-40.674 33.421z"/></svg>